<svg class="rich-terminal" viewBox="0 0 1604 904.0" xmlns="http://www.w3.org/2000/svg">
    <!-- Generated with Rich https://www.textualize.io -->
    <style>

    @font-face {
        font-family: "Fira Code";
        src: local("FiraCode-Regular"),
                url("https://cdnjs.cloudflare.com/ajax/libs/firacode/6.2.0/woff2/FiraCode-Regular.woff2") format("woff2"),
                url("https://cdnjs.cloudflare.com/ajax/libs/firacode/6.2.0/woff/FiraCode-Regular.woff") format("woff");
        font-style: normal;
        font-weight: 400;
    }
    @font-face {
        font-family: "Fira Code";
        src: local("FiraCode-Bold"),
                url("https://cdnjs.cloudflare.com/ajax/libs/firacode/6.2.0/woff2/FiraCode-Bold.woff2") format("woff2"),
                url("https://cdnjs.cloudflare.com/ajax/libs/firacode/6.2.0/woff/FiraCode-Bold.woff") format("woff");
        font-style: bold;
        font-weight: 700;
    }

    .spieldocs-matrix {
        font-family: Fira Code, monospace;
        font-size: 20px;
        line-height: 24.4px;
        font-variant-east-asian: full-width;
    }

    .spieldocs-title {
        font-size: 18px;
        font-weight: bold;
        font-family: arial;
    }

    .spieldocs-r1 { fill: #e1e1e1 }
.spieldocs-r2 { fill: #c5c8c6 }
.spieldocs-r3 { fill: #e1e1e1;font-weight: bold;text-decoration: underline; }
.spieldocs-r4 { fill: #608ab1;text-decoration: underline; }
.spieldocs-r5 { fill: #68a0b3;font-weight: bold }
.spieldocs-r6 { fill: #939393 }
.spieldocs-r7 { fill: #e1e1e1;font-weight: bold }
    </style>

    <defs>
    <clipPath id="spieldocs-clip-terminal">
      <rect x="0" y="0" width="1585.0" height="853.0" />
    </clipPath>
    <clipPath id="spieldocs-line-0">
    <rect x="0" y="1.5" width="1586" height="24.65"/>
            </clipPath>
<clipPath id="spieldocs-line-1">
    <rect x="0" y="25.9" width="1586" height="24.65"/>
            </clipPath>
<clipPath id="spieldocs-line-2">
    <rect x="0" y="50.3" width="1586" height="24.65"/>
            </clipPath>
<clipPath id="spieldocs-line-3">
    <rect x="0" y="74.7" width="1586" height="24.65"/>
            </clipPath>
<clipPath id="spieldocs-line-4">
    <rect x="0" y="99.1" width="1586" height="24.65"/>
            </clipPath>
<clipPath id="spieldocs-line-5">
    <rect x="0" y="123.5" width="1586" height="24.65"/>
            </clipPath>
<clipPath id="spieldocs-line-6">
    <rect x="0" y="147.9" width="1586" height="24.65"/>
            </clipPath>
<clipPath id="spieldocs-line-7">
    <rect x="0" y="172.3" width="1586" height="24.65"/>
            </clipPath>
<clipPath id="spieldocs-line-8">
    <rect x="0" y="196.7" width="1586" height="24.65"/>
            </clipPath>
<clipPath id="spieldocs-line-9">
    <rect x="0" y="221.1" width="1586" height="24.65"/>
            </clipPath>
<clipPath id="spieldocs-line-10">
    <rect x="0" y="245.5" width="1586" height="24.65"/>
            </clipPath>
<clipPath id="spieldocs-line-11">
    <rect x="0" y="269.9" width="1586" height="24.65"/>
            </clipPath>
<clipPath id="spieldocs-line-12">
    <rect x="0" y="294.3" width="1586" height="24.65"/>
            </clipPath>
<clipPath id="spieldocs-line-13">
    <rect x="0" y="318.7" width="1586" height="24.65"/>
            </clipPath>
<clipPath id="spieldocs-line-14">
    <rect x="0" y="343.1" width="1586" height="24.65"/>
            </clipPath>
<clipPath id="spieldocs-line-15">
    <rect x="0" y="367.5" width="1586" height="24.65"/>
            </clipPath>
<clipPath id="spieldocs-line-16">
    <rect x="0" y="391.9" width="1586" height="24.65"/>
            </clipPath>
<clipPath id="spieldocs-line-17">
    <rect x="0" y="416.3" width="1586" height="24.65"/>
            </clipPath>
<clipPath id="spieldocs-line-18">
    <rect x="0" y="440.7" width="1586" height="24.65"/>
            </clipPath>
<clipPath id="spieldocs-line-19">
    <rect x="0" y="465.1" width="1586" height="24.65"/>
            </clipPath>
<clipPath id="spieldocs-line-20">
    <rect x="0" y="489.5" width="1586" height="24.65"/>
            </clipPath>
<clipPath id="spieldocs-line-21">
    <rect x="0" y="513.9" width="1586" height="24.65"/>
            </clipPath>
<clipPath id="spieldocs-line-22">
    <rect x="0" y="538.3" width="1586" height="24.65"/>
            </clipPath>
<clipPath id="spieldocs-line-23">
    <rect x="0" y="562.7" width="1586" height="24.65"/>
            </clipPath>
<clipPath id="spieldocs-line-24">
    <rect x="0" y="587.1" width="1586" height="24.65"/>
            </clipPath>
<clipPath id="spieldocs-line-25">
    <rect x="0" y="611.5" width="1586" height="24.65"/>
            </clipPath>
<clipPath id="spieldocs-line-26">
    <rect x="0" y="635.9" width="1586" height="24.65"/>
            </clipPath>
<clipPath id="spieldocs-line-27">
    <rect x="0" y="660.3" width="1586" height="24.65"/>
            </clipPath>
<clipPath id="spieldocs-line-28">
    <rect x="0" y="684.7" width="1586" height="24.65"/>
            </clipPath>
<clipPath id="spieldocs-line-29">
    <rect x="0" y="709.1" width="1586" height="24.65"/>
            </clipPath>
<clipPath id="spieldocs-line-30">
    <rect x="0" y="733.5" width="1586" height="24.65"/>
            </clipPath>
<clipPath id="spieldocs-line-31">
    <rect x="0" y="757.9" width="1586" height="24.65"/>
            </clipPath>
<clipPath id="spieldocs-line-32">
    <rect x="0" y="782.3" width="1586" height="24.65"/>
            </clipPath>
<clipPath id="spieldocs-line-33">
    <rect x="0" y="806.7" width="1586" height="24.65"/>
            </clipPath>
    </defs>

    <rect fill="#292929" stroke="rgba(255,255,255,0.35)" stroke-width="1" x="1" y="1" width="1602" height="902" rx="8"/><text class="spieldocs-title" fill="#c5c8c6" text-anchor="middle" x="801" y="27">Spiel&#160;Demo&#160;Deck</text>
            <g transform="translate(26,22)">
            <circle cx="0" cy="0" r="7" fill="#ff5f57"/>
            <circle cx="22" cy="0" r="7" fill="#febc2e"/>
            <circle cx="44" cy="0" r="7" fill="#28c840"/>
            </g>
        
    <g transform="translate(9, 41)" clip-path="url(#spieldocs-clip-terminal)">
    <rect fill="#1e1e1e" x="0" y="1.5" width="61" height="24.65" shape-rendering="crispEdges"/><rect fill="#1e1e1e" x="61" y="1.5" width="0" height="24.65" shape-rendering="crispEdges"/><rect fill="#1e1e1e" x="61" y="1.5" width="671" height="24.65" shape-rendering="crispEdges"/><rect fill="#1e1e1e" x="732" y="1.5" width="61" height="24.65" shape-rendering="crispEdges"/><rect fill="#1e1e1e" x="793" y="1.5" width="61" height="24.65" shape-rendering="crispEdges"/><rect fill="#1e1e1e" x="854" y="1.5" width="0" height="24.65" shape-rendering="crispEdges"/><rect fill="#1e1e1e" x="854" y="1.5" width="671" height="24.65" shape-rendering="crispEdges"/><rect fill="#1e1e1e" x="1525" y="1.5" width="61" height="24.65" shape-rendering="crispEdges"/><rect fill="#1e1e1e" x="0" y="25.9" width="61" height="24.65" shape-rendering="crispEdges"/><rect fill="#1e1e1e" x="61" y="25.9" width="244" height="24.65" shape-rendering="crispEdges"/><rect fill="#1e1e1e" x="305" y="25.9" width="170.8" height="24.65" shape-rendering="crispEdges"/><rect fill="#1e1e1e" x="475.8" y="25.9" width="256.2" height="24.65" shape-rendering="crispEdges"/><rect fill="#1e1e1e" x="732" y="25.9" width="61" height="24.65" shape-rendering="crispEdges"/><rect fill="#1e1e1e" x="793" y="25.9" width="61" height="24.65" shape-rendering="crispEdges"/><rect fill="#1e1e1e" x="854" y="25.9" width="244" height="24.65" shape-rendering="crispEdges"/><rect fill="#1e1e1e" x="1098" y="25.9" width="170.8" height="24.65" shape-rendering="crispEdges"/><rect fill="#1e1e1e" x="1268.8" y="25.9" width="256.2" height="24.65" shape-rendering="crispEdges"/><rect fill="#1e1e1e" x="1525" y="25.9" width="61" height="24.65" shape-rendering="crispEdges"/><rect fill="#1e1e1e" x="0" y="50.3" width="61" height="24.65" shape-rendering="crispEdges"/><rect fill="#1e1e1e" x="61" y="50.3" width="671" height="24.65" shape-rendering="crispEdges"/><rect fill="#1e1e1e" x="732" y="50.3" width="61" height="24.65" shape-rendering="crispEdges"/><rect fill="#1e1e1e" x="793" y="50.3" width="61" height="24.65" shape-rendering="crispEdges"/><rect fill="#1e1e1e" x="854" y="50.3" width="671" height="24.65" shape-rendering="crispEdges"/><rect fill="#1e1e1e" x="1525" y="50.3" width="61" height="24.65" shape-rendering="crispEdges"/><rect fill="#1e1e1e" x="0" y="74.7" width="61" height="24.65" shape-rendering="crispEdges"/><rect fill="#1e1e1e" x="61" y="74.7" width="36.6" height="24.65" shape-rendering="crispEdges"/><rect fill="#1e1e1e" x="97.6" y="74.7" width="61" height="24.65" shape-rendering="crispEdges"/><rect fill="#1e1e1e" x="158.6" y="74.7" width="524.6" height="24.65" shape-rendering="crispEdges"/><rect fill="#1e1e1e" x="683.2" y="74.7" width="48.8" height="24.65" shape-rendering="crispEdges"/><rect fill="#1e1e1e" x="732" y="74.7" width="61" height="24.65" shape-rendering="crispEdges"/><rect fill="#1e1e1e" x="793" y="74.7" width="61" height="24.65" shape-rendering="crispEdges"/><rect fill="#1e1e1e" x="854" y="74.7" width="280.6" height="24.65" shape-rendering="crispEdges"/><rect fill="#1e1e1e" x="1134.6" y="74.7" width="109.8" height="24.65" shape-rendering="crispEdges"/><rect fill="#1e1e1e" x="1244.4" y="74.7" width="280.6" height="24.65" shape-rendering="crispEdges"/><rect fill="#1e1e1e" x="1525" y="74.7" width="61" height="24.65" shape-rendering="crispEdges"/><rect fill="#1e1e1e" x="0" y="99.1" width="61" height="24.65" shape-rendering="crispEdges"/><rect fill="#1e1e1e" x="61" y="99.1" width="24.4" height="24.65" shape-rendering="crispEdges"/><rect fill="#1e1e1e" x="85.4" y="99.1" width="610" height="24.65" shape-rendering="crispEdges"/><rect fill="#1e1e1e" x="695.4" y="99.1" width="36.6" height="24.65" shape-rendering="crispEdges"/><rect fill="#1e1e1e" x="732" y="99.1" width="61" height="24.65" shape-rendering="crispEdges"/><rect fill="#1e1e1e" x="793" y="99.1" width="61" height="24.65" shape-rendering="crispEdges"/><rect fill="#1e1e1e" x="854" y="99.1" width="671" height="24.65" shape-rendering="crispEdges"/><rect fill="#1e1e1e" x="1525" y="99.1" width="61" height="24.65" shape-rendering="crispEdges"/><rect fill="#1e1e1e" x="0" y="123.5" width="61" height="24.65" shape-rendering="crispEdges"/><rect fill="#1e1e1e" x="61" y="123.5" width="292.8" height="24.65" shape-rendering="crispEdges"/><rect fill="#1e1e1e" x="353.8" y="123.5" width="85.4" height="24.65" shape-rendering="crispEdges"/><rect fill="#1e1e1e" x="439.2" y="123.5" width="292.8" height="24.65" shape-rendering="crispEdges"/><rect fill="#1e1e1e" x="732" y="123.5" width="61" height="24.65" shape-rendering="crispEdges"/><rect fill="#1e1e1e" x="793" y="123.5" width="61" height="24.65" shape-rendering="crispEdges"/><rect fill="#1e1e1e" x="854" y="123.5" width="268.4" height="24.65" shape-rendering="crispEdges"/><rect fill="#1e1e1e" x="1122.4" y="123.5" width="134.2" height="24.65" shape-rendering="crispEdges"/><rect fill="#1e1e1e" x="1256.6" y="123.5" width="268.4" height="24.65" shape-rendering="crispEdges"/><rect fill="#1e1e1e" x="1525" y="123.5" width="61" height="24.65" shape-rendering="crispEdges"/><rect fill="#1e1e1e" x="0" y="147.9" width="61" height="24.65" shape-rendering="crispEdges"/><rect fill="#1e1e1e" x="61" y="147.9" width="671" height="24.65" shape-rendering="crispEdges"/><rect fill="#1e1e1e" x="732" y="147.9" width="61" height="24.65" shape-rendering="crispEdges"/><rect fill="#1e1e1e" x="793" y="147.9" width="61" height="24.65" shape-rendering="crispEdges"/><rect fill="#1e1e1e" x="854" y="147.9" width="671" height="24.65" shape-rendering="crispEdges"/><rect fill="#1e1e1e" x="1525" y="147.9" width="61" height="24.65" shape-rendering="crispEdges"/><rect fill="#1e1e1e" x="0" y="172.3" width="61" height="24.65" shape-rendering="crispEdges"/><rect fill="#1e1e1e" x="61" y="172.3" width="12.2" height="24.65" shape-rendering="crispEdges"/><rect fill="#1e1e1e" x="73.2" y="172.3" width="134.2" height="24.65" shape-rendering="crispEdges"/><rect fill="#1e1e1e" x="207.4" y="172.3" width="48.8" height="24.65" shape-rendering="crispEdges"/><rect fill="#1e1e1e" x="256.2" y="172.3" width="305" height="24.65" shape-rendering="crispEdges"/><rect fill="#1e1e1e" x="561.2" y="172.3" width="12.2" height="24.65" shape-rendering="crispEdges"/><rect fill="#1e1e1e" x="573.4" y="172.3" width="146.4" height="24.65" shape-rendering="crispEdges"/><rect fill="#1e1e1e" x="719.8" y="172.3" width="12.2" height="24.65" shape-rendering="crispEdges"/><rect fill="#1e1e1e" x="732" y="172.3" width="61" height="24.65" shape-rendering="crispEdges"/><rect fill="#1e1e1e" x="793" y="172.3" width="61" height="24.65" shape-rendering="crispEdges"/><rect fill="#1e1e1e" x="854" y="172.3" width="280.6" height="24.65" shape-rendering="crispEdges"/><rect fill="#1e1e1e" x="1134.6" y="172.3" width="97.6" height="24.65" shape-rendering="crispEdges"/><rect fill="#1e1e1e" x="1232.2" y="172.3" width="292.8" height="24.65" shape-rendering="crispEdges"/><rect fill="#1e1e1e" x="1525" y="172.3" width="61" height="24.65" shape-rendering="crispEdges"/><rect fill="#1e1e1e" x="0" y="196.7" width="61" height="24.65" shape-rendering="crispEdges"/><rect fill="#1e1e1e" x="61" y="196.7" width="671" height="24.65" shape-rendering="crispEdges"/><rect fill="#1e1e1e" x="732" y="196.7" width="61" height="24.65" shape-rendering="crispEdges"/><rect fill="#1e1e1e" x="793" y="196.7" width="61" height="24.65" shape-rendering="crispEdges"/><rect fill="#1e1e1e" x="854" y="196.7" width="671" height="24.65" shape-rendering="crispEdges"/><rect fill="#1e1e1e" x="1525" y="196.7" width="61" height="24.65" shape-rendering="crispEdges"/><rect fill="#1e1e1e" x="0" y="221.1" width="61" height="24.65" shape-rendering="crispEdges"/><rect fill="#1e1e1e" x="61" y="221.1" width="219.6" height="24.65" shape-rendering="crispEdges"/><rect fill="#1e1e1e" x="280.6" y="221.1" width="231.8" height="24.65" shape-rendering="crispEdges"/><rect fill="#1e1e1e" x="512.4" y="221.1" width="219.6" height="24.65" shape-rendering="crispEdges"/><rect fill="#1e1e1e" x="732" y="221.1" width="61" height="24.65" shape-rendering="crispEdges"/><rect fill="#1e1e1e" x="793" y="221.1" width="61" height="24.65" shape-rendering="crispEdges"/><rect fill="#1e1e1e" x="854" y="221.1" width="207.4" height="24.65" shape-rendering="crispEdges"/><rect fill="#1e1e1e" x="1061.4" y="221.1" width="244" height="24.65" shape-rendering="crispEdges"/><rect fill="#1e1e1e" x="1305.4" y="221.1" width="219.6" height="24.65" shape-rendering="crispEdges"/><rect fill="#1e1e1e" x="1525" y="221.1" width="61" height="24.65" shape-rendering="crispEdges"/><rect fill="#1e1e1e" x="0" y="245.5" width="61" height="24.65" shape-rendering="crispEdges"/><rect fill="#1e1e1e" x="61" y="245.5" width="671" height="24.65" shape-rendering="crispEdges"/><rect fill="#1e1e1e" x="732" y="245.5" width="61" height="24.65" shape-rendering="crispEdges"/><rect fill="#1e1e1e" x="793" y="245.5" width="61" height="24.65" shape-rendering="crispEdges"/><rect fill="#1e1e1e" x="854" y="245.5" width="671" height="24.65" shape-rendering="crispEdges"/><rect fill="#1e1e1e" x="1525" y="245.5" width="61" height="24.65" shape-rendering="crispEdges"/><rect fill="#1e1e1e" x="0" y="269.9" width="61" height="24.65" shape-rendering="crispEdges"/><rect fill="#1e1e1e" x="61" y="269.9" width="183" height="24.65" shape-rendering="crispEdges"/><rect fill="#4b4e55" x="244" y="269.9" width="12.2" height="24.65" shape-rendering="crispEdges"/><rect fill="#1e1e1e" x="256.2" y="269.9" width="122" height="24.65" shape-rendering="crispEdges"/><rect fill="#4b4e55" x="378.2" y="269.9" width="12.2" height="24.65" shape-rendering="crispEdges"/><rect fill="#1e1e1e" x="390.4" y="269.9" width="329.4" height="24.65" shape-rendering="crispEdges"/><rect fill="#1e1e1e" x="719.8" y="269.9" width="12.2" height="24.65" shape-rendering="crispEdges"/><rect fill="#1e1e1e" x="732" y="269.9" width="61" height="24.65" shape-rendering="crispEdges"/><rect fill="#1e1e1e" x="793" y="269.9" width="61" height="24.65" shape-rendering="crispEdges"/><rect fill="#1e1e1e" x="854" y="269.9" width="36.6" height="24.65" shape-rendering="crispEdges"/><rect fill="#1e1e1e" x="890.6" y="269.9" width="585.6" height="24.65" shape-rendering="crispEdges"/><rect fill="#1e1e1e" x="1476.2" y="269.9" width="48.8" height="24.65" shape-rendering="crispEdges"/><rect fill="#1e1e1e" x="1525" y="269.9" width="61" height="24.65" shape-rendering="crispEdges"/><rect fill="#1e1e1e" x="0" y="294.3" width="61" height="24.65" shape-rendering="crispEdges"/><rect fill="#1e1e1e" x="61" y="294.3" width="12.2" height="24.65" shape-rendering="crispEdges"/><rect fill="#1e1e1e" x="73.2" y="294.3" width="378.2" height="24.65" shape-rendering="crispEdges"/><rect fill="#1e1e1e" x="451.4" y="294.3" width="12.2" height="24.65" shape-rendering="crispEdges"/><rect fill="#1e1e1e" x="463.6" y="294.3" width="73.2" height="24.65" shape-rendering="crispEdges"/><rect fill="#4b4e55" x="536.8" y="294.3" width="73.2" height="24.65" shape-rendering="crispEdges"/><rect fill="#1e1e1e" x="610" y="294.3" width="109.8" height="24.65" shape-rendering="crispEdges"/><rect fill="#1e1e1e" x="719.8" y="294.3" width="12.2" height="24.65" shape-rendering="crispEdges"/><rect fill="#1e1e1e" x="732" y="294.3" width="61" height="24.65" shape-rendering="crispEdges"/><rect fill="#1e1e1e" x="793" y="294.3" width="61" height="24.65" shape-rendering="crispEdges"/><rect fill="#1e1e1e" x="854" y="294.3" width="671" height="24.65" shape-rendering="crispEdges"/><rect fill="#1e1e1e" x="1525" y="294.3" width="61" height="24.65" shape-rendering="crispEdges"/><rect fill="#1e1e1e" x="0" y="318.7" width="61" height="24.65" shape-rendering="crispEdges"/><rect fill="#1e1e1e" x="61" y="318.7" width="671" height="24.65" shape-rendering="crispEdges"/><rect fill="#1e1e1e" x="732" y="318.7" width="61" height="24.65" shape-rendering="crispEdges"/><rect fill="#1e1e1e" x="793" y="318.7" width="61" height="24.65" shape-rendering="crispEdges"/><rect fill="#1e1e1e" x="854" y="318.7" width="170.8" height="24.65" shape-rendering="crispEdges"/><rect fill="#1e1e1e" x="1024.8" y="318.7" width="183" height="24.65" shape-rendering="crispEdges"/><rect fill="#1e1e1e" x="1207.8" y="318.7" width="122" height="24.65" shape-rendering="crispEdges"/><rect fill="#1e1e1e" x="1329.8" y="318.7" width="12.2" height="24.65" shape-rendering="crispEdges"/><rect fill="#1e1e1e" x="1342" y="318.7" width="183" height="24.65" shape-rendering="crispEdges"/><rect fill="#1e1e1e" x="1525" y="318.7" width="61" height="24.65" shape-rendering="crispEdges"/><rect fill="#1e1e1e" x="0" y="343.1" width="61" height="24.65" shape-rendering="crispEdges"/><rect fill="#1e1e1e" x="61" y="343.1" width="36.6" height="24.65" shape-rendering="crispEdges"/><rect fill="#1e1e1e" x="97.6" y="343.1" width="73.2" height="24.65" shape-rendering="crispEdges"/><rect fill="#4b4e55" x="170.8" y="343.1" width="12.2" height="24.65" shape-rendering="crispEdges"/><rect fill="#1e1e1e" x="183" y="343.1" width="512.4" height="24.65" shape-rendering="crispEdges"/><rect fill="#1e1e1e" x="695.4" y="343.1" width="36.6" height="24.65" shape-rendering="crispEdges"/><rect fill="#1e1e1e" x="732" y="343.1" width="61" height="24.65" shape-rendering="crispEdges"/><rect fill="#1e1e1e" x="793" y="343.1" width="61" height="24.65" shape-rendering="crispEdges"/><rect fill="#1e1e1e" x="854" y="343.1" width="671" height="24.65" shape-rendering="crispEdges"/><rect fill="#1e1e1e" x="1525" y="343.1" width="61" height="24.65" shape-rendering="crispEdges"/><rect fill="#1e1e1e" x="0" y="367.5" width="61" height="24.65" shape-rendering="crispEdges"/><rect fill="#1e1e1e" x="61" y="367.5" width="24.4" height="24.65" shape-rendering="crispEdges"/><rect fill="#1e1e1e" x="85.4" y="367.5" width="622.2" height="24.65" shape-rendering="crispEdges"/><rect fill="#1e1e1e" x="707.6" y="367.5" width="24.4" height="24.65" shape-rendering="crispEdges"/><rect fill="#1e1e1e" x="732" y="367.5" width="61" height="24.65" shape-rendering="crispEdges"/><rect fill="#1e1e1e" x="793" y="367.5" width="61" height="24.65" shape-rendering="crispEdges"/><rect fill="#1e1e1e" x="854" y="367.5" width="671" height="24.65" shape-rendering="crispEdges"/><rect fill="#1e1e1e" x="1525" y="367.5" width="61" height="24.65" shape-rendering="crispEdges"/><rect fill="#1e1e1e" x="0" y="391.9" width="61" height="24.65" shape-rendering="crispEdges"/><rect fill="#1e1e1e" x="61" y="391.9" width="0" height="24.65" shape-rendering="crispEdges"/><rect fill="#1e1e1e" x="61" y="391.9" width="671" height="24.65" shape-rendering="crispEdges"/><rect fill="#1e1e1e" x="732" y="391.9" width="61" height="24.65" shape-rendering="crispEdges"/><rect fill="#1e1e1e" x="793" y="391.9" width="61" height="24.65" shape-rendering="crispEdges"/><rect fill="#1e1e1e" x="854" y="391.9" width="0" height="24.65" shape-rendering="crispEdges"/><rect fill="#1e1e1e" x="854" y="391.9" width="671" height="24.65" shape-rendering="crispEdges"/><rect fill="#1e1e1e" x="1525" y="391.9" width="61" height="24.65" shape-rendering="crispEdges"/><rect fill="#1e1e1e" x="0" y="416.3" width="61" height="24.65" shape-rendering="crispEdges"/><rect fill="#1e1e1e" x="61" y="416.3" width="256.2" height="24.65" shape-rendering="crispEdges"/><rect fill="#1e1e1e" x="317.2" y="416.3" width="146.4" height="24.65" shape-rendering="crispEdges"/><rect fill="#1e1e1e" x="463.6" y="416.3" width="268.4" height="24.65" shape-rendering="crispEdges"/><rect fill="#1e1e1e" x="732" y="416.3" width="61" height="24.65" shape-rendering="crispEdges"/><rect fill="#1e1e1e" x="793" y="416.3" width="61" height="24.65" shape-rendering="crispEdges"/><rect fill="#1e1e1e" x="854" y="416.3" width="256.2" height="24.65" shape-rendering="crispEdges"/><rect fill="#1e1e1e" x="1110.2" y="416.3" width="146.4" height="24.65" shape-rendering="crispEdges"/><rect fill="#1e1e1e" x="1256.6" y="416.3" width="268.4" height="24.65" shape-rendering="crispEdges"/><rect fill="#1e1e1e" x="1525" y="416.3" width="61" height="24.65" shape-rendering="crispEdges"/><rect fill="#1e1e1e" x="0" y="440.7" width="61" height="24.65" shape-rendering="crispEdges"/><rect fill="#1e1e1e" x="61" y="440.7" width="671" height="24.65" shape-rendering="crispEdges"/><rect fill="#1e1e1e" x="732" y="440.7" width="61" height="24.65" shape-rendering="crispEdges"/><rect fill="#1e1e1e" x="793" y="440.7" width="61" height="24.65" shape-rendering="crispEdges"/><rect fill="#1e1e1e" x="854" y="440.7" width="671" height="24.65" shape-rendering="crispEdges"/><rect fill="#1e1e1e" x="1525" y="440.7" width="61" height="24.65" shape-rendering="crispEdges"/><rect fill="#1e1e1e" x="0" y="465.1" width="61" height="24.65" shape-rendering="crispEdges"/><rect fill="#1e1e1e" x="61" y="465.1" width="109.8" height="24.65" shape-rendering="crispEdges"/><rect fill="#1e1e1e" x="170.8" y="465.1" width="280.6" height="24.65" shape-rendering="crispEdges"/><rect fill="#1e1e1e" x="451.4" y="465.1" width="158.6" height="24.65" shape-rendering="crispEdges"/><rect fill="#1e1e1e" x="610" y="465.1" width="12.2" height="24.65" shape-rendering="crispEdges"/><rect fill="#1e1e1e" x="622.2" y="465.1" width="109.8" height="24.65" shape-rendering="crispEdges"/><rect fill="#1e1e1e" x="732" y="465.1" width="61" height="24.65" shape-rendering="crispEdges"/><rect fill="#1e1e1e" x="793" y="465.1" width="61" height="24.65" shape-rendering="crispEdges"/><rect fill="#1e1e1e" x="854" y="465.1" width="12.2" height="24.65" shape-rendering="crispEdges"/><rect fill="#1e1e1e" x="866.2" y="465.1" width="195.2" height="24.65" shape-rendering="crispEdges"/><rect fill="#1e1e1e" x="1061.4" y="465.1" width="122" height="24.65" shape-rendering="crispEdges"/><rect fill="#1e1e1e" x="1183.4" y="465.1" width="61" height="24.65" shape-rendering="crispEdges"/><rect fill="#1e1e1e" x="1244.4" y="465.1" width="256.2" height="24.65" shape-rendering="crispEdges"/><rect fill="#1e1e1e" x="1500.6" y="465.1" width="24.4" height="24.65" shape-rendering="crispEdges"/><rect fill="#1e1e1e" x="1525" y="465.1" width="61" height="24.65" shape-rendering="crispEdges"/><rect fill="#1e1e1e" x="0" y="489.5" width="61" height="24.65" shape-rendering="crispEdges"/><rect fill="#1e1e1e" x="61" y="489.5" width="671" height="24.65" shape-rendering="crispEdges"/><rect fill="#1e1e1e" x="732" y="489.5" width="61" height="24.65" shape-rendering="crispEdges"/><rect fill="#1e1e1e" x="793" y="489.5" width="61" height="24.65" shape-rendering="crispEdges"/><rect fill="#1e1e1e" x="854" y="489.5" width="292.8" height="24.65" shape-rendering="crispEdges"/><rect fill="#1e1e1e" x="1146.8" y="489.5" width="73.2" height="24.65" shape-rendering="crispEdges"/><rect fill="#1e1e1e" x="1220" y="489.5" width="305" height="24.65" shape-rendering="crispEdges"/><rect fill="#1e1e1e" x="1525" y="489.5" width="61" height="24.65" shape-rendering="crispEdges"/><rect fill="#1e1e1e" x="0" y="513.9" width="61" height="24.65" shape-rendering="crispEdges"/><rect fill="#1e1e1e" x="61" y="513.9" width="12.2" height="24.65" shape-rendering="crispEdges"/><rect fill="#1e1e1e" x="73.2" y="513.9" width="610" height="24.65" shape-rendering="crispEdges"/><rect fill="#1e1e1e" x="683.2" y="513.9" width="12.2" height="24.65" shape-rendering="crispEdges"/><rect fill="#1e1e1e" x="695.4" y="513.9" width="24.4" height="24.65" shape-rendering="crispEdges"/><rect fill="#1e1e1e" x="719.8" y="513.9" width="12.2" height="24.65" shape-rendering="crispEdges"/><rect fill="#1e1e1e" x="732" y="513.9" width="61" height="24.65" shape-rendering="crispEdges"/><rect fill="#1e1e1e" x="793" y="513.9" width="61" height="24.65" shape-rendering="crispEdges"/><rect fill="#1e1e1e" x="854" y="513.9" width="671" height="24.65" shape-rendering="crispEdges"/><rect fill="#1e1e1e" x="1525" y="513.9" width="61" height="24.65" shape-rendering="crispEdges"/><rect fill="#1e1e1e" x="0" y="538.3" width="61" height="24.65" shape-rendering="crispEdges"/><rect fill="#1e1e1e" x="61" y="538.3" width="402.6" height="24.65" shape-rendering="crispEdges"/><rect fill="#1e1e1e" x="463.6" y="538.3" width="12.2" height="24.65" shape-rendering="crispEdges"/><rect fill="#1e1e1e" x="475.8" y="538.3" width="183" height="24.65" shape-rendering="crispEdges"/><rect fill="#1e1e1e" x="658.8" y="538.3" width="73.2" height="24.65" shape-rendering="crispEdges"/><rect fill="#1e1e1e" x="732" y="538.3" width="61" height="24.65" shape-rendering="crispEdges"/><rect fill="#1e1e1e" x="793" y="538.3" width="61" height="24.65" shape-rendering="crispEdges"/><rect fill="#1e1e1e" x="854" y="538.3" width="24.4" height="24.65" shape-rendering="crispEdges"/><rect fill="#1e1e1e" x="878.4" y="538.3" width="195.2" height="24.65" shape-rendering="crispEdges"/><rect fill="#1e1e1e" x="1073.6" y="538.3" width="414.8" height="24.65" shape-rendering="crispEdges"/><rect fill="#1e1e1e" x="1488.4" y="538.3" width="36.6" height="24.65" shape-rendering="crispEdges"/><rect fill="#1e1e1e" x="1525" y="538.3" width="61" height="24.65" shape-rendering="crispEdges"/><rect fill="#1e1e1e" x="0" y="562.7" width="61" height="24.65" shape-rendering="crispEdges"/><rect fill="#1e1e1e" x="61" y="562.7" width="256.2" height="24.65" shape-rendering="crispEdges"/><rect fill="#1e1e1e" x="317.2" y="562.7" width="134.2" height="24.65" shape-rendering="crispEdges"/><rect fill="#1e1e1e" x="451.4" y="562.7" width="12.2" height="24.65" shape-rendering="crispEdges"/><rect fill="#1e1e1e" x="463.6" y="562.7" width="268.4" height="24.65" shape-rendering="crispEdges"/><rect fill="#1e1e1e" x="732" y="562.7" width="61" height="24.65" shape-rendering="crispEdges"/><rect fill="#1e1e1e" x="793" y="562.7" width="61" height="24.65" shape-rendering="crispEdges"/><rect fill="#1e1e1e" x="854" y="562.7" width="195.2" height="24.65" shape-rendering="crispEdges"/><rect fill="#1e1e1e" x="1049.2" y="562.7" width="280.6" height="24.65" shape-rendering="crispEdges"/><rect fill="#1e1e1e" x="1329.8" y="562.7" width="195.2" height="24.65" shape-rendering="crispEdges"/><rect fill="#1e1e1e" x="1525" y="562.7" width="61" height="24.65" shape-rendering="crispEdges"/><rect fill="#1e1e1e" x="0" y="587.1" width="61" height="24.65" shape-rendering="crispEdges"/><rect fill="#1e1e1e" x="61" y="587.1" width="671" height="24.65" shape-rendering="crispEdges"/><rect fill="#1e1e1e" x="732" y="587.1" width="61" height="24.65" shape-rendering="crispEdges"/><rect fill="#1e1e1e" x="793" y="587.1" width="61" height="24.65" shape-rendering="crispEdges"/><rect fill="#1e1e1e" x="854" y="587.1" width="671" height="24.65" shape-rendering="crispEdges"/><rect fill="#1e1e1e" x="1525" y="587.1" width="61" height="24.65" shape-rendering="crispEdges"/><rect fill="#1e1e1e" x="0" y="611.5" width="61" height="24.65" shape-rendering="crispEdges"/><rect fill="#1e1e1e" x="61" y="611.5" width="671" height="24.65" shape-rendering="crispEdges"/><rect fill="#1e1e1e" x="732" y="611.5" width="61" height="24.65" shape-rendering="crispEdges"/><rect fill="#1e1e1e" x="793" y="611.5" width="61" height="24.65" shape-rendering="crispEdges"/><rect fill="#1e1e1e" x="854" y="611.5" width="146.4" height="24.65" shape-rendering="crispEdges"/><rect fill="#1e1e1e" x="1000.4" y="611.5" width="97.6" height="24.65" shape-rendering="crispEdges"/><rect fill="#1e1e1e" x="1098" y="611.5" width="73.2" height="24.65" shape-rendering="crispEdges"/><rect fill="#1e1e1e" x="1171.2" y="611.5" width="195.2" height="24.65" shape-rendering="crispEdges"/><rect fill="#1e1e1e" x="1366.4" y="611.5" width="158.6" height="24.65" shape-rendering="crispEdges"/><rect fill="#1e1e1e" x="1525" y="611.5" width="61" height="24.65" shape-rendering="crispEdges"/><rect fill="#1e1e1e" x="0" y="635.9" width="61" height="24.65" shape-rendering="crispEdges"/><rect fill="#1e1e1e" x="61" y="635.9" width="671" height="24.65" shape-rendering="crispEdges"/><rect fill="#1e1e1e" x="732" y="635.9" width="61" height="24.65" shape-rendering="crispEdges"/><rect fill="#1e1e1e" x="793" y="635.9" width="61" height="24.65" shape-rendering="crispEdges"/><rect fill="#1e1e1e" x="854" y="635.9" width="671" height="24.65" shape-rendering="crispEdges"/><rect fill="#1e1e1e" x="1525" y="635.9" width="61" height="24.65" shape-rendering="crispEdges"/><rect fill="#1e1e1e" x="0" y="660.3" width="61" height="24.65" shape-rendering="crispEdges"/><rect fill="#1e1e1e" x="61" y="660.3" width="671" height="24.65" shape-rendering="crispEdges"/><rect fill="#1e1e1e" x="732" y="660.3" width="61" height="24.65" shape-rendering="crispEdges"/><rect fill="#1e1e1e" x="793" y="660.3" width="61" height="24.65" shape-rendering="crispEdges"/><rect fill="#1e1e1e" x="854" y="660.3" width="671" height="24.65" shape-rendering="crispEdges"/><rect fill="#1e1e1e" x="1525" y="660.3" width="61" height="24.65" shape-rendering="crispEdges"/><rect fill="#1e1e1e" x="0" y="684.7" width="61" height="24.65" shape-rendering="crispEdges"/><rect fill="#1e1e1e" x="61" y="684.7" width="671" height="24.65" shape-rendering="crispEdges"/><rect fill="#1e1e1e" x="732" y="684.7" width="61" height="24.65" shape-rendering="crispEdges"/><rect fill="#1e1e1e" x="793" y="684.7" width="61" height="24.65" shape-rendering="crispEdges"/><rect fill="#1e1e1e" x="854" y="684.7" width="671" height="24.65" shape-rendering="crispEdges"/><rect fill="#1e1e1e" x="1525" y="684.7" width="61" height="24.65" shape-rendering="crispEdges"/><rect fill="#1e1e1e" x="0" y="709.1" width="61" height="24.65" shape-rendering="crispEdges"/><rect fill="#1e1e1e" x="61" y="709.1" width="671" height="24.65" shape-rendering="crispEdges"/><rect fill="#1e1e1e" x="732" y="709.1" width="61" height="24.65" shape-rendering="crispEdges"/><rect fill="#1e1e1e" x="793" y="709.1" width="61" height="24.65" shape-rendering="crispEdges"/><rect fill="#1e1e1e" x="854" y="709.1" width="671" height="24.65" shape-rendering="crispEdges"/><rect fill="#1e1e1e" x="1525" y="709.1" width="61" height="24.65" shape-rendering="crispEdges"/><rect fill="#1e1e1e" x="0" y="733.5" width="61" height="24.65" shape-rendering="crispEdges"/><rect fill="#1e1e1e" x="61" y="733.5" width="671" height="24.65" shape-rendering="crispEdges"/><rect fill="#1e1e1e" x="732" y="733.5" width="61" height="24.65" shape-rendering="crispEdges"/><rect fill="#1e1e1e" x="793" y="733.5" width="61" height="24.65" shape-rendering="crispEdges"/><rect fill="#1e1e1e" x="854" y="733.5" width="671" height="24.65" shape-rendering="crispEdges"/><rect fill="#1e1e1e" x="1525" y="733.5" width="61" height="24.65" shape-rendering="crispEdges"/><rect fill="#1e1e1e" x="0" y="757.9" width="61" height="24.65" shape-rendering="crispEdges"/><rect fill="#1e1e1e" x="61" y="757.9" width="671" height="24.65" shape-rendering="crispEdges"/><rect fill="#1e1e1e" x="732" y="757.9" width="61" height="24.65" shape-rendering="crispEdges"/><rect fill="#1e1e1e" x="793" y="757.9" width="61" height="24.65" shape-rendering="crispEdges"/><rect fill="#1e1e1e" x="854" y="757.9" width="671" height="24.65" shape-rendering="crispEdges"/><rect fill="#1e1e1e" x="1525" y="757.9" width="61" height="24.65" shape-rendering="crispEdges"/><rect fill="#1e1e1e" x="0" y="782.3" width="61" height="24.65" shape-rendering="crispEdges"/><rect fill="#1e1e1e" x="61" y="782.3" width="671" height="24.65" shape-rendering="crispEdges"/><rect fill="#1e1e1e" x="732" y="782.3" width="61" height="24.65" shape-rendering="crispEdges"/><rect fill="#1e1e1e" x="793" y="782.3" width="61" height="24.65" shape-rendering="crispEdges"/><rect fill="#1e1e1e" x="854" y="782.3" width="671" height="24.65" shape-rendering="crispEdges"/><rect fill="#1e1e1e" x="1525" y="782.3" width="61" height="24.65" shape-rendering="crispEdges"/><rect fill="#1e1e1e" x="0" y="806.7" width="1586" height="24.65" shape-rendering="crispEdges"/><rect fill="#1e1e1e" x="0" y="831.1" width="793" height="24.65" shape-rendering="crispEdges"/><rect fill="#1e1e1e" x="793" y="831.1" width="12.2" height="24.65" shape-rendering="crispEdges"/><rect fill="#1e1e1e" x="805.2" y="831.1" width="12.2" height="24.65" shape-rendering="crispEdges"/><rect fill="#1e1e1e" x="817.4" y="831.1" width="12.2" height="24.65" shape-rendering="crispEdges"/><rect fill="#1e1e1e" x="829.6" y="831.1" width="756.4" height="24.65" shape-rendering="crispEdges"/>
    <g class="spieldocs-matrix">
    <text class="spieldocs-r2" x="1586" y="20" textLength="12.2" clip-path="url(#spieldocs-line-0)">
</text><text class="spieldocs-r3" x="305" y="44.4" textLength="170.8" clip-path="url(#spieldocs-line-1)">What&#160;is&#160;Spiel?</text><text class="spieldocs-r3" x="1098" y="44.4" textLength="170.8" clip-path="url(#spieldocs-line-1)">Why&#160;use&#160;Spiel?</text><text class="spieldocs-r2" x="1586" y="44.4" textLength="12.2" clip-path="url(#spieldocs-line-1)">
</text><text class="spieldocs-r2" x="1586" y="68.8" textLength="12.2" clip-path="url(#spieldocs-line-2)">
</text><text class="spieldocs-r4" x="97.6" y="93.2" textLength="61" clip-path="url(#spieldocs-line-3)">Spiel</text><text class="spieldocs-r1" x="158.6" y="93.2" textLength="524.6" clip-path="url(#spieldocs-line-3)">&#160;is&#160;a&#160;framework&#160;for&#160;building&#160;and&#160;presenting</text><text class="spieldocs-r1" x="1134.6" y="93.2" textLength="109.8" clip-path="url(#spieldocs-line-3)">It&#x27;s&#160;fun!</text><text class="spieldocs-r2" x="1586" y="93.2" textLength="12.2" clip-path="url(#spieldocs-line-3)">
</text><text class="spieldocs-r1" x="85.4" y="117.6" textLength="610" clip-path="url(#spieldocs-line-4)">richly-styled&#160;presentations&#160;in&#160;your&#160;terminal&#160;using</text><text class="spieldocs-r2" x="1586" y="117.6" textLength="12.2" clip-path="url(#spieldocs-line-4)">
</text><text class="spieldocs-r1" x="353.8" y="142" textLength="85.4" clip-path="url(#spieldocs-line-5)">Python.</text><text class="spieldocs-r1" x="1122.4" y="142" textLength="134.2" clip-path="url(#spieldocs-line-5)">It&#x27;s&#160;weird!</text><text class="spieldocs-r2" x="1586" y="142" textLength="12.2" clip-path="url(#spieldocs-line-5)">
</text><text class="spieldocs-r2" x="1586" y="166.4" textLength="12.2" clip-path="url(#spieldocs-line-6)">
</text><text class="spieldocs-r1" x="73.2" y="190.8" textLength="134.2" clip-path="url(#spieldocs-line-7)">Spiel&#160;uses&#160;</text><text class="spieldocs-r4" x="207.4" y="190.8" textLength="48.8" clip-path="url(#spieldocs-line-7)">Rich</text><text class="spieldocs-r1" x="256.2" y="190.8" textLength="305" clip-path="url(#spieldocs-line-7)">&#160;to&#160;render&#160;slide&#160;content.</text><text class="spieldocs-r1" x="573.4" y="190.8" textLength="146.4" clip-path="url(#spieldocs-line-7)">Anything&#160;you</text><text class="spieldocs-r1" x="1134.6" y="190.8" textLength="97.6" clip-path="url(#spieldocs-line-7)">Why&#160;not?</text><text class="spieldocs-r2" x="1586" y="190.8" textLength="12.2" clip-path="url(#spieldocs-line-7)">
</text><text class="spieldocs-r1" x="61" y="215.2" textLength="671" clip-path="url(#spieldocs-line-8)">can&#160;display&#160;with&#160;Rich,&#160;you&#160;can&#160;display&#160;with&#160;Spiel&#160;(plus</text><text class="spieldocs-r2" x="1586" y="215.2" textLength="12.2" clip-path="url(#spieldocs-line-8)">
</text><text class="spieldocs-r1" x="280.6" y="239.6" textLength="231.8" clip-path="url(#spieldocs-line-9)">some&#160;other&#160;things)!</text><text class="spieldocs-r1" x="1061.4" y="239.6" textLength="244" clip-path="url(#spieldocs-line-9)">Maybe&#160;you&#160;shouldn&#x27;t.</text><text class="spieldocs-r2" x="1586" y="239.6" textLength="12.2" clip-path="url(#spieldocs-line-9)">
</text><text class="spieldocs-r2" x="1586" y="264" textLength="12.2" clip-path="url(#spieldocs-line-10)">
</text><text class="spieldocs-r1" x="61" y="288.4" textLength="183" clip-path="url(#spieldocs-line-11)">Use&#160;your&#160;right&#160;</text><text class="spieldocs-r5" x="244" y="288.4" textLength="12.2" clip-path="url(#spieldocs-line-11)">→</text><text class="spieldocs-r1" x="256.2" y="288.4" textLength="122" clip-path="url(#spieldocs-line-11)">&#160;and&#160;left&#160;</text><text class="spieldocs-r5" x="378.2" y="288.4" textLength="12.2" clip-path="url(#spieldocs-line-11)">←</text><text class="spieldocs-r1" x="390.4" y="288.4" textLength="329.4" clip-path="url(#spieldocs-line-11)">&#160;arrows&#160;keys&#160;to&#160;go&#160;forwards</text><text class="spieldocs-r1" x="890.6" y="288.4" textLength="585.6" clip-path="url(#spieldocs-line-11)">Honestly,&#160;it&#x27;s&#160;unclear&#160;whether&#160;it&#x27;s&#160;a&#160;good&#160;idea.</text><text class="spieldocs-r2" x="1586" y="288.4" textLength="12.2" clip-path="url(#spieldocs-line-11)">
</text><text class="spieldocs-r1" x="73.2" y="312.8" textLength="378.2" clip-path="url(#spieldocs-line-12)">and&#160;backwards&#160;through&#160;the&#160;deck.</text><text class="spieldocs-r1" x="463.6" y="312.8" textLength="73.2" clip-path="url(#spieldocs-line-12)">Press&#160;</text><text class="spieldocs-r5" x="536.8" y="312.8" textLength="73.2" clip-path="url(#spieldocs-line-12)">ctrl-c</text><text class="spieldocs-r1" x="610" y="312.8" textLength="109.8" clip-path="url(#spieldocs-line-12)">&#160;to&#160;exit.</text><text class="spieldocs-r2" x="1586" y="312.8" textLength="12.2" clip-path="url(#spieldocs-line-12)">
</text><text class="spieldocs-r1" x="1024.8" y="337.2" textLength="183" clip-path="url(#spieldocs-line-13)">There&#x27;s&#160;always&#160;</text><text class="spieldocs-r4" x="1207.8" y="337.2" textLength="122" clip-path="url(#spieldocs-line-13)">Powerpoint</text><text class="spieldocs-r1" x="1329.8" y="337.2" textLength="12.2" clip-path="url(#spieldocs-line-13)">!</text><text class="spieldocs-r2" x="1586" y="337.2" textLength="12.2" clip-path="url(#spieldocs-line-13)">
</text><text class="spieldocs-r1" x="97.6" y="361.6" textLength="73.2" clip-path="url(#spieldocs-line-14)">Press&#160;</text><text class="spieldocs-r5" x="170.8" y="361.6" textLength="12.2" clip-path="url(#spieldocs-line-14)">?</text><text class="spieldocs-r1" x="183" y="361.6" textLength="512.4" clip-path="url(#spieldocs-line-14)">&#160;at&#160;any&#160;time&#160;to&#160;see&#160;the&#160;help&#160;screen,&#160;which</text><text class="spieldocs-r2" x="1586" y="361.6" textLength="12.2" clip-path="url(#spieldocs-line-14)">
</text><text class="spieldocs-r1" x="85.4" y="386" textLength="622.2" clip-path="url(#spieldocs-line-15)">describes&#160;all&#160;of&#160;the&#160;built-in&#160;actions&#160;you&#160;can&#160;take.</text><text class="spieldocs-r2" x="1586" y="386" textLength="12.2" clip-path="url(#spieldocs-line-15)">
</text><text class="spieldocs-r2" x="1586" y="410.4" textLength="12.2" clip-path="url(#spieldocs-line-16)">
</text><text class="spieldocs-r3" x="317.2" y="434.8" textLength="146.4" clip-path="url(#spieldocs-line-17)">Contributing</text><text class="spieldocs-r3" x="1110.2" y="434.8" textLength="146.4" clip-path="url(#spieldocs-line-17)">Inspirations</text><text class="spieldocs-r2" x="1586" y="434.8" textLength="12.2" clip-path="url(#spieldocs-line-17)">
</text><text class="spieldocs-r2" x="1586" y="459.2" textLength="12.2" clip-path="url(#spieldocs-line-18)">
</text><text class="spieldocs-r1" x="170.8" y="483.6" textLength="280.6" clip-path="url(#spieldocs-line-19)">Please&#160;report&#160;bugs&#160;via&#160;</text><text class="spieldocs-r4" x="451.4" y="483.6" textLength="158.6" clip-path="url(#spieldocs-line-19)">GitHub&#160;Issues</text><text class="spieldocs-r1" x="610" y="483.6" textLength="12.2" clip-path="url(#spieldocs-line-19)">.</text><text class="spieldocs-r1" x="866.2" y="483.6" textLength="195.2" clip-path="url(#spieldocs-line-19)">Brandon&#160;Rhodes&#x27;&#160;</text><text class="spieldocs-r4" x="1061.4" y="483.6" textLength="122" clip-path="url(#spieldocs-line-19)">PyCon&#160;2017</text><text class="spieldocs-r1" x="1183.4" y="483.6" textLength="61" clip-path="url(#spieldocs-line-19)">&#160;and&#160;</text><text class="spieldocs-r4" x="1244.4" y="483.6" textLength="256.2" clip-path="url(#spieldocs-line-19)">North&#160;Bay&#160;Python&#160;2017</text><text class="spieldocs-r2" x="1586" y="483.6" textLength="12.2" clip-path="url(#spieldocs-line-19)">
</text><text class="spieldocs-r1" x="1146.8" y="508" textLength="73.2" clip-path="url(#spieldocs-line-20)">talks.</text><text class="spieldocs-r2" x="1586" y="508" textLength="12.2" clip-path="url(#spieldocs-line-20)">
</text><text class="spieldocs-r1" x="73.2" y="532.4" textLength="610" clip-path="url(#spieldocs-line-21)">If&#160;you&#160;have&#160;ideas&#160;about&#160;how&#160;Spiel&#160;can&#160;be&#160;improved,</text><text class="spieldocs-r1" x="695.4" y="532.4" textLength="24.4" clip-path="url(#spieldocs-line-21)">or</text><text class="spieldocs-r2" x="1586" y="532.4" textLength="12.2" clip-path="url(#spieldocs-line-21)">
</text><text class="spieldocs-r1" x="61" y="556.8" textLength="402.6" clip-path="url(#spieldocs-line-22)">you&#160;have&#160;a&#160;cool&#160;deck&#160;to&#160;show&#160;off,</text><text class="spieldocs-r1" x="475.8" y="556.8" textLength="183" clip-path="url(#spieldocs-line-22)">please&#160;post&#160;to&#160;</text><text class="spieldocs-r4" x="658.8" y="556.8" textLength="73.2" clip-path="url(#spieldocs-line-22)">GitHub</text><text class="spieldocs-r1" x="878.4" y="556.8" textLength="195.2" clip-path="url(#spieldocs-line-22)">David&#160;Beazley&#x27;s&#160;</text><text class="spieldocs-r4" x="1073.6" y="556.8" textLength="414.8" clip-path="url(#spieldocs-line-22)">Lambda&#160;Calculus&#160;from&#160;the&#160;Ground&#160;Up</text><text class="spieldocs-r2" x="1586" y="556.8" textLength="12.2" clip-path="url(#spieldocs-line-22)">
</text><text class="spieldocs-r4" x="317.2" y="581.2" textLength="134.2" clip-path="url(#spieldocs-line-23)">Discussions</text><text class="spieldocs-r1" x="451.4" y="581.2" textLength="12.2" clip-path="url(#spieldocs-line-23)">.</text><text class="spieldocs-r1" x="1049.2" y="581.2" textLength="280.6" clip-path="url(#spieldocs-line-23)">tutorial&#160;at&#160;PyCon&#160;2019.</text><text class="spieldocs-r2" x="1586" y="581.2" textLength="12.2" clip-path="url(#spieldocs-line-23)">
</text><text class="spieldocs-r2" x="1586" y="605.6" textLength="12.2" clip-path="url(#spieldocs-line-24)">
</text><text class="spieldocs-r1" x="1000.4" y="630" textLength="97.6" clip-path="url(#spieldocs-line-25)">LaTeX&#x27;s&#160;</text><text class="spieldocs-r4" x="1098" y="630" textLength="73.2" clip-path="url(#spieldocs-line-25)">Beamer</text><text class="spieldocs-r1" x="1171.2" y="630" textLength="195.2" clip-path="url(#spieldocs-line-25)">&#160;document&#160;class.</text><text class="spieldocs-r2" x="1586" y="630" textLength="12.2" clip-path="url(#spieldocs-line-25)">
</text><text class="spieldocs-r2" x="1586" y="654.4" textLength="12.2" clip-path="url(#spieldocs-line-26)">
</text><text class="spieldocs-r2" x="1586" y="678.8" textLength="12.2" clip-path="url(#spieldocs-line-27)">
</text><text class="spieldocs-r2" x="1586" y="703.2" textLength="12.2" clip-path="url(#spieldocs-line-28)">
</text><text class="spieldocs-r2" x="1586" y="727.6" textLength="12.2" clip-path="url(#spieldocs-line-29)">
</text><text class="spieldocs-r2" x="1586" y="752" textLength="12.2" clip-path="url(#spieldocs-line-30)">
</text><text class="spieldocs-r2" x="1586" y="776.4" textLength="12.2" clip-path="url(#spieldocs-line-31)">
</text><text class="spieldocs-r2" x="1586" y="800.8" textLength="12.2" clip-path="url(#spieldocs-line-32)">
</text><text class="spieldocs-r6" x="0" y="825.2" textLength="1586" clip-path="url(#spieldocs-line-33)">──────────────────────────────────────────────────────────────────────────────────────────────────────────────────────────────────</text><text class="spieldocs-r2" x="1586" y="825.2" textLength="12.2" clip-path="url(#spieldocs-line-33)">
</text><text class="spieldocs-r6" x="0" y="849.6" textLength="793" clip-path="url(#spieldocs-line-34)">Spiel&#160;Demo&#160;Deck&#160;|&#160;What&#160;is&#160;Spiel?&#160;&#160;&#160;&#160;&#160;&#160;&#160;&#160;&#160;&#160;&#160;&#160;&#160;&#160;&#160;&#160;&#160;&#160;&#160;&#160;&#160;&#160;&#160;&#160;&#160;&#160;&#160;&#160;&#160;&#160;&#160;&#160;&#160;</text><text class="spieldocs-r6" x="829.6" y="849.6" textLength="756.4" clip-path="url(#spieldocs-line-34)">&#160;&#160;&#160;&#160;&#160;&#160;&#160;&#160;&#160;&#160;&#160;&#160;&#160;&#160;&#160;&#160;&#160;&#160;&#160;&#160;&#160;&#160;&#160;&#160;&#160;&#160;&#160;&#160;&#160;&#160;&#160;2022-12-17&#160;03:31&#160;PM&#160;&#160;&#160;[01&#160;/&#160;11]</text>
    </g>
    </g>
</svg>
