<svg class="rich-terminal" viewBox="0 0 1604 904.0" xmlns="http://www.w3.org/2000/svg">
    <!-- Generated with Rich https://www.textualize.io -->
    <style>

    @font-face {
        font-family: "Fira Code";
        src: local("FiraCode-Regular"),
                url("https://cdnjs.cloudflare.com/ajax/libs/firacode/6.2.0/woff2/FiraCode-Regular.woff2") format("woff2"),
                url("https://cdnjs.cloudflare.com/ajax/libs/firacode/6.2.0/woff/FiraCode-Regular.woff") format("woff");
        font-style: normal;
        font-weight: 400;
    }
    @font-face {
        font-family: "Fira Code";
        src: local("FiraCode-Bold"),
                url("https://cdnjs.cloudflare.com/ajax/libs/firacode/6.2.0/woff2/FiraCode-Bold.woff2") format("woff2"),
                url("https://cdnjs.cloudflare.com/ajax/libs/firacode/6.2.0/woff/FiraCode-Bold.woff") format("woff");
        font-style: bold;
        font-weight: 700;
    }

    .spieldocs-matrix {
        font-family: Fira Code, monospace;
        font-size: 20px;
        line-height: 24.4px;
        font-variant-east-asian: full-width;
    }

    .spieldocs-title {
        font-size: 18px;
        font-weight: bold;
        font-family: arial;
    }

    .spieldocs-r1 { fill: #e1e1e1 }
.spieldocs-r2 { fill: #c5c8c6 }
.spieldocs-r3 { fill: #a6e22e }
.spieldocs-r4 { fill: #f8f8f2 }
.spieldocs-r5 { fill: #f92672 }
.spieldocs-r6 { fill: #e6db74 }
.spieldocs-r7 { fill: #66d9ef }
.spieldocs-r8 { fill: #939393 }
.spieldocs-r9 { fill: #e1e1e1;font-weight: bold }
    </style>

    <defs>
    <clipPath id="spieldocs-clip-terminal">
      <rect x="0" y="0" width="1585.0" height="853.0" />
    </clipPath>
    <clipPath id="spieldocs-line-0">
    <rect x="0" y="1.5" width="1586" height="24.65"/>
            </clipPath>
<clipPath id="spieldocs-line-1">
    <rect x="0" y="25.9" width="1586" height="24.65"/>
            </clipPath>
<clipPath id="spieldocs-line-2">
    <rect x="0" y="50.3" width="1586" height="24.65"/>
            </clipPath>
<clipPath id="spieldocs-line-3">
    <rect x="0" y="74.7" width="1586" height="24.65"/>
            </clipPath>
<clipPath id="spieldocs-line-4">
    <rect x="0" y="99.1" width="1586" height="24.65"/>
            </clipPath>
<clipPath id="spieldocs-line-5">
    <rect x="0" y="123.5" width="1586" height="24.65"/>
            </clipPath>
<clipPath id="spieldocs-line-6">
    <rect x="0" y="147.9" width="1586" height="24.65"/>
            </clipPath>
<clipPath id="spieldocs-line-7">
    <rect x="0" y="172.3" width="1586" height="24.65"/>
            </clipPath>
<clipPath id="spieldocs-line-8">
    <rect x="0" y="196.7" width="1586" height="24.65"/>
            </clipPath>
<clipPath id="spieldocs-line-9">
    <rect x="0" y="221.1" width="1586" height="24.65"/>
            </clipPath>
<clipPath id="spieldocs-line-10">
    <rect x="0" y="245.5" width="1586" height="24.65"/>
            </clipPath>
<clipPath id="spieldocs-line-11">
    <rect x="0" y="269.9" width="1586" height="24.65"/>
            </clipPath>
<clipPath id="spieldocs-line-12">
    <rect x="0" y="294.3" width="1586" height="24.65"/>
            </clipPath>
<clipPath id="spieldocs-line-13">
    <rect x="0" y="318.7" width="1586" height="24.65"/>
            </clipPath>
<clipPath id="spieldocs-line-14">
    <rect x="0" y="343.1" width="1586" height="24.65"/>
            </clipPath>
<clipPath id="spieldocs-line-15">
    <rect x="0" y="367.5" width="1586" height="24.65"/>
            </clipPath>
<clipPath id="spieldocs-line-16">
    <rect x="0" y="391.9" width="1586" height="24.65"/>
            </clipPath>
<clipPath id="spieldocs-line-17">
    <rect x="0" y="416.3" width="1586" height="24.65"/>
            </clipPath>
<clipPath id="spieldocs-line-18">
    <rect x="0" y="440.7" width="1586" height="24.65"/>
            </clipPath>
<clipPath id="spieldocs-line-19">
    <rect x="0" y="465.1" width="1586" height="24.65"/>
            </clipPath>
<clipPath id="spieldocs-line-20">
    <rect x="0" y="489.5" width="1586" height="24.65"/>
            </clipPath>
<clipPath id="spieldocs-line-21">
    <rect x="0" y="513.9" width="1586" height="24.65"/>
            </clipPath>
<clipPath id="spieldocs-line-22">
    <rect x="0" y="538.3" width="1586" height="24.65"/>
            </clipPath>
<clipPath id="spieldocs-line-23">
    <rect x="0" y="562.7" width="1586" height="24.65"/>
            </clipPath>
<clipPath id="spieldocs-line-24">
    <rect x="0" y="587.1" width="1586" height="24.65"/>
            </clipPath>
<clipPath id="spieldocs-line-25">
    <rect x="0" y="611.5" width="1586" height="24.65"/>
            </clipPath>
<clipPath id="spieldocs-line-26">
    <rect x="0" y="635.9" width="1586" height="24.65"/>
            </clipPath>
<clipPath id="spieldocs-line-27">
    <rect x="0" y="660.3" width="1586" height="24.65"/>
            </clipPath>
<clipPath id="spieldocs-line-28">
    <rect x="0" y="684.7" width="1586" height="24.65"/>
            </clipPath>
<clipPath id="spieldocs-line-29">
    <rect x="0" y="709.1" width="1586" height="24.65"/>
            </clipPath>
<clipPath id="spieldocs-line-30">
    <rect x="0" y="733.5" width="1586" height="24.65"/>
            </clipPath>
<clipPath id="spieldocs-line-31">
    <rect x="0" y="757.9" width="1586" height="24.65"/>
            </clipPath>
<clipPath id="spieldocs-line-32">
    <rect x="0" y="782.3" width="1586" height="24.65"/>
            </clipPath>
<clipPath id="spieldocs-line-33">
    <rect x="0" y="806.7" width="1586" height="24.65"/>
            </clipPath>
    </defs>

    <rect fill="#292929" stroke="rgba(255,255,255,0.35)" stroke-width="1" x="1" y="1" width="1602" height="902" rx="8"/><text class="spieldocs-title" fill="#c5c8c6" text-anchor="middle" x="801" y="27">Spiel&#160;Demo&#160;Deck</text>
            <g transform="translate(26,22)">
            <circle cx="0" cy="0" r="7" fill="#ff5f57"/>
            <circle cx="22" cy="0" r="7" fill="#febc2e"/>
            <circle cx="44" cy="0" r="7" fill="#28c840"/>
            </g>
        
    <g transform="translate(9, 41)" clip-path="url(#spieldocs-clip-terminal)">
    <rect fill="#1e1e1e" x="0" y="1.5" width="646.6" height="24.65" shape-rendering="crispEdges"/><rect fill="#1e1e1e" x="646.6" y="1.5" width="292.8" height="24.65" shape-rendering="crispEdges"/><rect fill="#1e1e1e" x="939.4" y="1.5" width="646.6" height="24.65" shape-rendering="crispEdges"/><rect fill="#1e1e1e" x="0" y="25.9" width="646.6" height="24.65" shape-rendering="crispEdges"/><rect fill="#1e1e1e" x="646.6" y="25.9" width="12.2" height="24.65" shape-rendering="crispEdges"/><rect fill="#1e1e1e" x="658.8" y="25.9" width="12.2" height="24.65" shape-rendering="crispEdges"/><rect fill="#272822" x="671" y="25.9" width="97.6" height="24.65" shape-rendering="crispEdges"/><rect fill="#272822" x="768.6" y="25.9" width="12.2" height="24.65" shape-rendering="crispEdges"/><rect fill="#272822" x="780.8" y="25.9" width="48.8" height="24.65" shape-rendering="crispEdges"/><rect fill="#272822" x="829.6" y="25.9" width="12.2" height="24.65" shape-rendering="crispEdges"/><rect fill="#272822" x="841.8" y="25.9" width="12.2" height="24.65" shape-rendering="crispEdges"/><rect fill="#272822" x="854" y="25.9" width="36.6" height="24.65" shape-rendering="crispEdges"/><rect fill="#272822" x="890.6" y="25.9" width="12.2" height="24.65" shape-rendering="crispEdges"/><rect fill="#272822" x="902.8" y="25.9" width="12.2" height="24.65" shape-rendering="crispEdges"/><rect fill="#1e1e1e" x="915" y="25.9" width="12.2" height="24.65" shape-rendering="crispEdges"/><rect fill="#1e1e1e" x="927.2" y="25.9" width="12.2" height="24.65" shape-rendering="crispEdges"/><rect fill="#1e1e1e" x="939.4" y="25.9" width="646.6" height="24.65" shape-rendering="crispEdges"/><rect fill="#1e1e1e" x="0" y="50.3" width="646.6" height="24.65" shape-rendering="crispEdges"/><rect fill="#1e1e1e" x="646.6" y="50.3" width="12.2" height="24.65" shape-rendering="crispEdges"/><rect fill="#1e1e1e" x="658.8" y="50.3" width="12.2" height="24.65" shape-rendering="crispEdges"/><rect fill="#272822" x="671" y="50.3" width="244" height="24.65" shape-rendering="crispEdges"/><rect fill="#1e1e1e" x="915" y="50.3" width="12.2" height="24.65" shape-rendering="crispEdges"/><rect fill="#1e1e1e" x="927.2" y="50.3" width="12.2" height="24.65" shape-rendering="crispEdges"/><rect fill="#1e1e1e" x="939.4" y="50.3" width="646.6" height="24.65" shape-rendering="crispEdges"/><rect fill="#1e1e1e" x="0" y="74.7" width="646.6" height="24.65" shape-rendering="crispEdges"/><rect fill="#1e1e1e" x="646.6" y="74.7" width="12.2" height="24.65" shape-rendering="crispEdges"/><rect fill="#1e1e1e" x="658.8" y="74.7" width="12.2" height="24.65" shape-rendering="crispEdges"/><rect fill="#272822" x="671" y="74.7" width="36.6" height="24.65" shape-rendering="crispEdges"/><rect fill="#272822" x="707.6" y="74.7" width="12.2" height="24.65" shape-rendering="crispEdges"/><rect fill="#272822" x="719.8" y="74.7" width="36.6" height="24.65" shape-rendering="crispEdges"/><rect fill="#272822" x="756.4" y="74.7" width="12.2" height="24.65" shape-rendering="crispEdges"/><rect fill="#272822" x="768.6" y="74.7" width="12.2" height="24.65" shape-rendering="crispEdges"/><rect fill="#272822" x="780.8" y="74.7" width="12.2" height="24.65" shape-rendering="crispEdges"/><rect fill="#272822" x="793" y="74.7" width="122" height="24.65" shape-rendering="crispEdges"/><rect fill="#1e1e1e" x="915" y="74.7" width="12.2" height="24.65" shape-rendering="crispEdges"/><rect fill="#1e1e1e" x="927.2" y="74.7" width="12.2" height="24.65" shape-rendering="crispEdges"/><rect fill="#1e1e1e" x="939.4" y="74.7" width="646.6" height="24.65" shape-rendering="crispEdges"/><rect fill="#1e1e1e" x="0" y="99.1" width="646.6" height="24.65" shape-rendering="crispEdges"/><rect fill="#1e1e1e" x="646.6" y="99.1" width="12.2" height="24.65" shape-rendering="crispEdges"/><rect fill="#1e1e1e" x="658.8" y="99.1" width="12.2" height="24.65" shape-rendering="crispEdges"/><rect fill="#272822" x="671" y="99.1" width="244" height="24.65" shape-rendering="crispEdges"/><rect fill="#1e1e1e" x="915" y="99.1" width="12.2" height="24.65" shape-rendering="crispEdges"/><rect fill="#1e1e1e" x="927.2" y="99.1" width="12.2" height="24.65" shape-rendering="crispEdges"/><rect fill="#1e1e1e" x="939.4" y="99.1" width="646.6" height="24.65" shape-rendering="crispEdges"/><rect fill="#1e1e1e" x="0" y="123.5" width="646.6" height="24.65" shape-rendering="crispEdges"/><rect fill="#1e1e1e" x="646.6" y="123.5" width="12.2" height="24.65" shape-rendering="crispEdges"/><rect fill="#1e1e1e" x="658.8" y="123.5" width="12.2" height="24.65" shape-rendering="crispEdges"/><rect fill="#272822" x="671" y="123.5" width="48.8" height="24.65" shape-rendering="crispEdges"/><rect fill="#272822" x="719.8" y="123.5" width="61" height="24.65" shape-rendering="crispEdges"/><rect fill="#272822" x="780.8" y="123.5" width="12.2" height="24.65" shape-rendering="crispEdges"/><rect fill="#272822" x="793" y="123.5" width="12.2" height="24.65" shape-rendering="crispEdges"/><rect fill="#272822" x="805.2" y="123.5" width="36.6" height="24.65" shape-rendering="crispEdges"/><rect fill="#272822" x="841.8" y="123.5" width="12.2" height="24.65" shape-rendering="crispEdges"/><rect fill="#272822" x="854" y="123.5" width="12.2" height="24.65" shape-rendering="crispEdges"/><rect fill="#272822" x="866.2" y="123.5" width="48.8" height="24.65" shape-rendering="crispEdges"/><rect fill="#1e1e1e" x="915" y="123.5" width="12.2" height="24.65" shape-rendering="crispEdges"/><rect fill="#1e1e1e" x="927.2" y="123.5" width="12.2" height="24.65" shape-rendering="crispEdges"/><rect fill="#1e1e1e" x="939.4" y="123.5" width="646.6" height="24.65" shape-rendering="crispEdges"/><rect fill="#1e1e1e" x="0" y="147.9" width="646.6" height="24.65" shape-rendering="crispEdges"/><rect fill="#1e1e1e" x="646.6" y="147.9" width="292.8" height="24.65" shape-rendering="crispEdges"/><rect fill="#1e1e1e" x="939.4" y="147.9" width="646.6" height="24.65" shape-rendering="crispEdges"/><rect fill="#1e1e1e" x="0" y="172.3" width="768.6" height="24.65" shape-rendering="crispEdges"/><rect fill="#1e1e1e" x="768.6" y="172.3" width="48.8" height="24.65" shape-rendering="crispEdges"/><rect fill="#1e1e1e" x="817.4" y="172.3" width="768.6" height="24.65" shape-rendering="crispEdges"/><rect fill="#1e1e1e" x="0" y="196.7" width="768.6" height="24.65" shape-rendering="crispEdges"/><rect fill="#1e1e1e" x="768.6" y="196.7" width="48.8" height="24.65" shape-rendering="crispEdges"/><rect fill="#1e1e1e" x="817.4" y="196.7" width="768.6" height="24.65" shape-rendering="crispEdges"/><rect fill="#1e1e1e" x="0" y="221.1" width="1586" height="24.65" shape-rendering="crispEdges"/><rect fill="#1e1e1e" x="0" y="245.5" width="1586" height="24.65" shape-rendering="crispEdges"/><rect fill="#1e1e1e" x="0" y="269.9" width="1586" height="24.65" shape-rendering="crispEdges"/><rect fill="#1e1e1e" x="0" y="294.3" width="1586" height="24.65" shape-rendering="crispEdges"/><rect fill="#1e1e1e" x="0" y="318.7" width="1586" height="24.65" shape-rendering="crispEdges"/><rect fill="#1e1e1e" x="0" y="343.1" width="1586" height="24.65" shape-rendering="crispEdges"/><rect fill="#1e1e1e" x="0" y="367.5" width="1586" height="24.65" shape-rendering="crispEdges"/><rect fill="#1e1e1e" x="0" y="391.9" width="1586" height="24.65" shape-rendering="crispEdges"/><rect fill="#1e1e1e" x="0" y="416.3" width="1586" height="24.65" shape-rendering="crispEdges"/><rect fill="#1e1e1e" x="0" y="440.7" width="1586" height="24.65" shape-rendering="crispEdges"/><rect fill="#1e1e1e" x="0" y="465.1" width="1586" height="24.65" shape-rendering="crispEdges"/><rect fill="#1e1e1e" x="0" y="489.5" width="1586" height="24.65" shape-rendering="crispEdges"/><rect fill="#1e1e1e" x="0" y="513.9" width="1586" height="24.65" shape-rendering="crispEdges"/><rect fill="#1e1e1e" x="0" y="538.3" width="1586" height="24.65" shape-rendering="crispEdges"/><rect fill="#1e1e1e" x="0" y="562.7" width="1586" height="24.65" shape-rendering="crispEdges"/><rect fill="#1e1e1e" x="0" y="587.1" width="1586" height="24.65" shape-rendering="crispEdges"/><rect fill="#1e1e1e" x="0" y="611.5" width="1586" height="24.65" shape-rendering="crispEdges"/><rect fill="#1e1e1e" x="0" y="635.9" width="1586" height="24.65" shape-rendering="crispEdges"/><rect fill="#1e1e1e" x="0" y="660.3" width="1586" height="24.65" shape-rendering="crispEdges"/><rect fill="#1e1e1e" x="0" y="684.7" width="1586" height="24.65" shape-rendering="crispEdges"/><rect fill="#1e1e1e" x="0" y="709.1" width="1586" height="24.65" shape-rendering="crispEdges"/><rect fill="#1e1e1e" x="0" y="733.5" width="1586" height="24.65" shape-rendering="crispEdges"/><rect fill="#1e1e1e" x="0" y="757.9" width="1586" height="24.65" shape-rendering="crispEdges"/><rect fill="#1e1e1e" x="0" y="782.3" width="1586" height="24.65" shape-rendering="crispEdges"/><rect fill="#1e1e1e" x="0" y="806.7" width="1586" height="24.65" shape-rendering="crispEdges"/><rect fill="#1e1e1e" x="0" y="831.1" width="854" height="24.65" shape-rendering="crispEdges"/><rect fill="#1e1e1e" x="854" y="831.1" width="12.2" height="24.65" shape-rendering="crispEdges"/><rect fill="#1e1e1e" x="866.2" y="831.1" width="12.2" height="24.65" shape-rendering="crispEdges"/><rect fill="#1e1e1e" x="878.4" y="831.1" width="12.2" height="24.65" shape-rendering="crispEdges"/><rect fill="#1e1e1e" x="890.6" y="831.1" width="695.4" height="24.65" shape-rendering="crispEdges"/>
    <g class="spieldocs-matrix">
    <text class="spieldocs-r1" x="646.6" y="20" textLength="292.8" clip-path="url(#spieldocs-line-0)">╭──────────────────────╮</text><text class="spieldocs-r2" x="1586" y="20" textLength="12.2" clip-path="url(#spieldocs-line-0)">
</text><text class="spieldocs-r1" x="646.6" y="44.4" textLength="12.2" clip-path="url(#spieldocs-line-1)">│</text><text class="spieldocs-r3" x="671" y="44.4" textLength="97.6" clip-path="url(#spieldocs-line-1)">@example</text><text class="spieldocs-r4" x="768.6" y="44.4" textLength="12.2" clip-path="url(#spieldocs-line-1)">(</text><text class="spieldocs-r4" x="780.8" y="44.4" textLength="48.8" clip-path="url(#spieldocs-line-1)">name</text><text class="spieldocs-r5" x="829.6" y="44.4" textLength="12.2" clip-path="url(#spieldocs-line-1)">=</text><text class="spieldocs-r6" x="841.8" y="44.4" textLength="12.2" clip-path="url(#spieldocs-line-1)">&quot;</text><text class="spieldocs-r6" x="854" y="44.4" textLength="36.6" clip-path="url(#spieldocs-line-1)">foo</text><text class="spieldocs-r6" x="890.6" y="44.4" textLength="12.2" clip-path="url(#spieldocs-line-1)">&quot;</text><text class="spieldocs-r4" x="902.8" y="44.4" textLength="12.2" clip-path="url(#spieldocs-line-1)">)</text><text class="spieldocs-r1" x="927.2" y="44.4" textLength="12.2" clip-path="url(#spieldocs-line-1)">│</text><text class="spieldocs-r2" x="1586" y="44.4" textLength="12.2" clip-path="url(#spieldocs-line-1)">
</text><text class="spieldocs-r1" x="646.6" y="68.8" textLength="12.2" clip-path="url(#spieldocs-line-2)">│</text><text class="spieldocs-r1" x="927.2" y="68.8" textLength="12.2" clip-path="url(#spieldocs-line-2)">│</text><text class="spieldocs-r2" x="1586" y="68.8" textLength="12.2" clip-path="url(#spieldocs-line-2)">
</text><text class="spieldocs-r1" x="646.6" y="93.2" textLength="12.2" clip-path="url(#spieldocs-line-3)">│</text><text class="spieldocs-r7" x="671" y="93.2" textLength="36.6" clip-path="url(#spieldocs-line-3)">def</text><text class="spieldocs-r3" x="719.8" y="93.2" textLength="36.6" clip-path="url(#spieldocs-line-3)">foo</text><text class="spieldocs-r4" x="756.4" y="93.2" textLength="12.2" clip-path="url(#spieldocs-line-3)">(</text><text class="spieldocs-r4" x="768.6" y="93.2" textLength="12.2" clip-path="url(#spieldocs-line-3)">)</text><text class="spieldocs-r4" x="780.8" y="93.2" textLength="12.2" clip-path="url(#spieldocs-line-3)">:</text><text class="spieldocs-r1" x="927.2" y="93.2" textLength="12.2" clip-path="url(#spieldocs-line-3)">│</text><text class="spieldocs-r2" x="1586" y="93.2" textLength="12.2" clip-path="url(#spieldocs-line-3)">
</text><text class="spieldocs-r1" x="646.6" y="117.6" textLength="12.2" clip-path="url(#spieldocs-line-4)">│</text><text class="spieldocs-r1" x="927.2" y="117.6" textLength="12.2" clip-path="url(#spieldocs-line-4)">│</text><text class="spieldocs-r2" x="1586" y="117.6" textLength="12.2" clip-path="url(#spieldocs-line-4)">
</text><text class="spieldocs-r1" x="646.6" y="142" textLength="12.2" clip-path="url(#spieldocs-line-5)">│</text><text class="spieldocs-r4" x="719.8" y="142" textLength="61" clip-path="url(#spieldocs-line-5)">print</text><text class="spieldocs-r4" x="780.8" y="142" textLength="12.2" clip-path="url(#spieldocs-line-5)">(</text><text class="spieldocs-r6" x="793" y="142" textLength="12.2" clip-path="url(#spieldocs-line-5)">&quot;</text><text class="spieldocs-r6" x="805.2" y="142" textLength="36.6" clip-path="url(#spieldocs-line-5)">foo</text><text class="spieldocs-r6" x="841.8" y="142" textLength="12.2" clip-path="url(#spieldocs-line-5)">&quot;</text><text class="spieldocs-r4" x="854" y="142" textLength="12.2" clip-path="url(#spieldocs-line-5)">)</text><text class="spieldocs-r1" x="927.2" y="142" textLength="12.2" clip-path="url(#spieldocs-line-5)">│</text><text class="spieldocs-r2" x="1586" y="142" textLength="12.2" clip-path="url(#spieldocs-line-5)">
</text><text class="spieldocs-r1" x="646.6" y="166.4" textLength="292.8" clip-path="url(#spieldocs-line-6)">╰──────────────────────╯</text><text class="spieldocs-r2" x="1586" y="166.4" textLength="12.2" clip-path="url(#spieldocs-line-6)">
</text><text class="spieldocs-r1" x="768.6" y="190.8" textLength="48.8" clip-path="url(#spieldocs-line-7)">╭──╮</text><text class="spieldocs-r2" x="1586" y="190.8" textLength="12.2" clip-path="url(#spieldocs-line-7)">
</text><text class="spieldocs-r1" x="768.6" y="215.2" textLength="48.8" clip-path="url(#spieldocs-line-8)">╰──╯</text><text class="spieldocs-r2" x="1586" y="215.2" textLength="12.2" clip-path="url(#spieldocs-line-8)">
</text><text class="spieldocs-r2" x="1586" y="239.6" textLength="12.2" clip-path="url(#spieldocs-line-9)">
</text><text class="spieldocs-r2" x="1586" y="264" textLength="12.2" clip-path="url(#spieldocs-line-10)">
</text><text class="spieldocs-r2" x="1586" y="288.4" textLength="12.2" clip-path="url(#spieldocs-line-11)">
</text><text class="spieldocs-r2" x="1586" y="312.8" textLength="12.2" clip-path="url(#spieldocs-line-12)">
</text><text class="spieldocs-r2" x="1586" y="337.2" textLength="12.2" clip-path="url(#spieldocs-line-13)">
</text><text class="spieldocs-r2" x="1586" y="361.6" textLength="12.2" clip-path="url(#spieldocs-line-14)">
</text><text class="spieldocs-r2" x="1586" y="386" textLength="12.2" clip-path="url(#spieldocs-line-15)">
</text><text class="spieldocs-r2" x="1586" y="410.4" textLength="12.2" clip-path="url(#spieldocs-line-16)">
</text><text class="spieldocs-r2" x="1586" y="434.8" textLength="12.2" clip-path="url(#spieldocs-line-17)">
</text><text class="spieldocs-r2" x="1586" y="459.2" textLength="12.2" clip-path="url(#spieldocs-line-18)">
</text><text class="spieldocs-r2" x="1586" y="483.6" textLength="12.2" clip-path="url(#spieldocs-line-19)">
</text><text class="spieldocs-r2" x="1586" y="508" textLength="12.2" clip-path="url(#spieldocs-line-20)">
</text><text class="spieldocs-r2" x="1586" y="532.4" textLength="12.2" clip-path="url(#spieldocs-line-21)">
</text><text class="spieldocs-r2" x="1586" y="556.8" textLength="12.2" clip-path="url(#spieldocs-line-22)">
</text><text class="spieldocs-r2" x="1586" y="581.2" textLength="12.2" clip-path="url(#spieldocs-line-23)">
</text><text class="spieldocs-r2" x="1586" y="605.6" textLength="12.2" clip-path="url(#spieldocs-line-24)">
</text><text class="spieldocs-r2" x="1586" y="630" textLength="12.2" clip-path="url(#spieldocs-line-25)">
</text><text class="spieldocs-r2" x="1586" y="654.4" textLength="12.2" clip-path="url(#spieldocs-line-26)">
</text><text class="spieldocs-r2" x="1586" y="678.8" textLength="12.2" clip-path="url(#spieldocs-line-27)">
</text><text class="spieldocs-r2" x="1586" y="703.2" textLength="12.2" clip-path="url(#spieldocs-line-28)">
</text><text class="spieldocs-r2" x="1586" y="727.6" textLength="12.2" clip-path="url(#spieldocs-line-29)">
</text><text class="spieldocs-r2" x="1586" y="752" textLength="12.2" clip-path="url(#spieldocs-line-30)">
</text><text class="spieldocs-r2" x="1586" y="776.4" textLength="12.2" clip-path="url(#spieldocs-line-31)">
</text><text class="spieldocs-r2" x="1586" y="800.8" textLength="12.2" clip-path="url(#spieldocs-line-32)">
</text><text class="spieldocs-r8" x="0" y="825.2" textLength="1586" clip-path="url(#spieldocs-line-33)">──────────────────────────────────────────────────────────────────────────────────────────────────────────────────────────────────</text><text class="spieldocs-r2" x="1586" y="825.2" textLength="12.2" clip-path="url(#spieldocs-line-33)">
</text><text class="spieldocs-r8" x="0" y="849.6" textLength="854" clip-path="url(#spieldocs-line-34)">Spiel&#160;Demo&#160;Deck&#160;|&#160;Executable&#160;Examples&#160;&#160;&#160;&#160;&#160;&#160;&#160;&#160;&#160;&#160;&#160;&#160;&#160;&#160;&#160;&#160;&#160;&#160;&#160;&#160;&#160;&#160;&#160;&#160;&#160;&#160;&#160;&#160;&#160;&#160;&#160;&#160;&#160;</text><text class="spieldocs-r8" x="890.6" y="849.6" textLength="695.4" clip-path="url(#spieldocs-line-34)">&#160;&#160;&#160;&#160;&#160;&#160;&#160;&#160;&#160;&#160;&#160;&#160;&#160;&#160;&#160;&#160;&#160;&#160;&#160;&#160;&#160;&#160;&#160;&#160;&#160;&#160;2022-12-17&#160;03:31&#160;PM&#160;&#160;&#160;[01&#160;/&#160;12]</text>
    </g>
    </g>
</svg>
