<svg class="rich-terminal" viewBox="0 0 872 416.0" xmlns="http://www.w3.org/2000/svg">
    <!-- Generated with Rich https://www.textualize.io -->
    <style>

    @font-face {
        font-family: "Fira Code";
        src: local("FiraCode-Regular"),
                url("https://cdnjs.cloudflare.com/ajax/libs/firacode/6.2.0/woff2/FiraCode-Regular.woff2") format("woff2"),
                url("https://cdnjs.cloudflare.com/ajax/libs/firacode/6.2.0/woff/FiraCode-Regular.woff") format("woff");
        font-style: normal;
        font-weight: 400;
    }
    @font-face {
        font-family: "Fira Code";
        src: local("FiraCode-Bold"),
                url("https://cdnjs.cloudflare.com/ajax/libs/firacode/6.2.0/woff2/FiraCode-Bold.woff2") format("woff2"),
                url("https://cdnjs.cloudflare.com/ajax/libs/firacode/6.2.0/woff/FiraCode-Bold.woff") format("woff");
        font-style: bold;
        font-weight: 700;
    }

    .spieldocs-matrix {
        font-family: Fira Code, monospace;
        font-size: 20px;
        line-height: 24.4px;
        font-variant-east-asian: full-width;
    }

    .spieldocs-title {
        font-size: 18px;
        font-weight: bold;
        font-family: arial;
    }

    .spieldocs-r1 { fill: #e1e1e1 }
.spieldocs-r2 { fill: #c5c8c6 }
.spieldocs-r3 { fill: #939393 }
.spieldocs-r4 { fill: #e1e1e1;font-weight: bold }
    </style>

    <defs>
    <clipPath id="spieldocs-clip-terminal">
      <rect x="0" y="0" width="853.0" height="365.0" />
    </clipPath>
    <clipPath id="spieldocs-line-0">
    <rect x="0" y="1.5" width="854" height="24.65"/>
            </clipPath>
<clipPath id="spieldocs-line-1">
    <rect x="0" y="25.9" width="854" height="24.65"/>
            </clipPath>
<clipPath id="spieldocs-line-2">
    <rect x="0" y="50.3" width="854" height="24.65"/>
            </clipPath>
<clipPath id="spieldocs-line-3">
    <rect x="0" y="74.7" width="854" height="24.65"/>
            </clipPath>
<clipPath id="spieldocs-line-4">
    <rect x="0" y="99.1" width="854" height="24.65"/>
            </clipPath>
<clipPath id="spieldocs-line-5">
    <rect x="0" y="123.5" width="854" height="24.65"/>
            </clipPath>
<clipPath id="spieldocs-line-6">
    <rect x="0" y="147.9" width="854" height="24.65"/>
            </clipPath>
<clipPath id="spieldocs-line-7">
    <rect x="0" y="172.3" width="854" height="24.65"/>
            </clipPath>
<clipPath id="spieldocs-line-8">
    <rect x="0" y="196.7" width="854" height="24.65"/>
            </clipPath>
<clipPath id="spieldocs-line-9">
    <rect x="0" y="221.1" width="854" height="24.65"/>
            </clipPath>
<clipPath id="spieldocs-line-10">
    <rect x="0" y="245.5" width="854" height="24.65"/>
            </clipPath>
<clipPath id="spieldocs-line-11">
    <rect x="0" y="269.9" width="854" height="24.65"/>
            </clipPath>
<clipPath id="spieldocs-line-12">
    <rect x="0" y="294.3" width="854" height="24.65"/>
            </clipPath>
<clipPath id="spieldocs-line-13">
    <rect x="0" y="318.7" width="854" height="24.65"/>
            </clipPath>
    </defs>

    <rect fill="#292929" stroke="rgba(255,255,255,0.35)" stroke-width="1" x="1" y="1" width="870" height="414" rx="8"/><text class="spieldocs-title" fill="#c5c8c6" text-anchor="middle" x="435" y="27">Trigger&#160;Examples</text>
            <g transform="translate(26,22)">
            <circle cx="0" cy="0" r="7" fill="#ff5f57"/>
            <circle cx="22" cy="0" r="7" fill="#febc2e"/>
            <circle cx="44" cy="0" r="7" fill="#28c840"/>
            </g>
        
    <g transform="translate(9, 41)" clip-path="url(#spieldocs-clip-terminal)">
    <rect fill="#1e1e1e" x="0" y="1.5" width="854" height="24.65" shape-rendering="crispEdges"/><rect fill="#1e1e1e" x="0" y="25.9" width="854" height="24.65" shape-rendering="crispEdges"/><rect fill="#1e1e1e" x="0" y="50.3" width="854" height="24.65" shape-rendering="crispEdges"/><rect fill="#1e1e1e" x="0" y="74.7" width="854" height="24.65" shape-rendering="crispEdges"/><rect fill="#1e1e1e" x="0" y="99.1" width="170.8" height="24.65" shape-rendering="crispEdges"/><rect fill="#1e1e1e" x="170.8" y="99.1" width="512.4" height="24.65" shape-rendering="crispEdges"/><rect fill="#1e1e1e" x="683.2" y="99.1" width="170.8" height="24.65" shape-rendering="crispEdges"/><rect fill="#1e1e1e" x="0" y="123.5" width="170.8" height="24.65" shape-rendering="crispEdges"/><rect fill="#1e1e1e" x="170.8" y="123.5" width="195.2" height="24.65" shape-rendering="crispEdges"/><rect fill="#1e1e1e" x="366" y="123.5" width="122" height="24.65" shape-rendering="crispEdges"/><rect fill="#1e1e1e" x="488" y="123.5" width="195.2" height="24.65" shape-rendering="crispEdges"/><rect fill="#1e1e1e" x="683.2" y="123.5" width="170.8" height="24.65" shape-rendering="crispEdges"/><rect fill="#1e1e1e" x="0" y="147.9" width="170.8" height="24.65" shape-rendering="crispEdges"/><rect fill="#1e1e1e" x="170.8" y="147.9" width="195.2" height="24.65" shape-rendering="crispEdges"/><rect fill="#1e1e1e" x="366" y="147.9" width="12.2" height="24.65" shape-rendering="crispEdges"/><rect fill="#1e1e1e" x="378.2" y="147.9" width="12.2" height="24.65" shape-rendering="crispEdges"/><rect fill="#1e1e1e" x="390.4" y="147.9" width="73.2" height="24.65" shape-rendering="crispEdges"/><rect fill="#1e1e1e" x="463.6" y="147.9" width="12.2" height="24.65" shape-rendering="crispEdges"/><rect fill="#1e1e1e" x="475.8" y="147.9" width="12.2" height="24.65" shape-rendering="crispEdges"/><rect fill="#1e1e1e" x="488" y="147.9" width="195.2" height="24.65" shape-rendering="crispEdges"/><rect fill="#1e1e1e" x="683.2" y="147.9" width="170.8" height="24.65" shape-rendering="crispEdges"/><rect fill="#1e1e1e" x="0" y="172.3" width="170.8" height="24.65" shape-rendering="crispEdges"/><rect fill="#1e1e1e" x="170.8" y="172.3" width="195.2" height="24.65" shape-rendering="crispEdges"/><rect fill="#1e1e1e" x="366" y="172.3" width="122" height="24.65" shape-rendering="crispEdges"/><rect fill="#1e1e1e" x="488" y="172.3" width="195.2" height="24.65" shape-rendering="crispEdges"/><rect fill="#1e1e1e" x="683.2" y="172.3" width="170.8" height="24.65" shape-rendering="crispEdges"/><rect fill="#1e1e1e" x="0" y="196.7" width="854" height="24.65" shape-rendering="crispEdges"/><rect fill="#1e1e1e" x="0" y="221.1" width="854" height="24.65" shape-rendering="crispEdges"/><rect fill="#1e1e1e" x="0" y="245.5" width="854" height="24.65" shape-rendering="crispEdges"/><rect fill="#1e1e1e" x="0" y="269.9" width="854" height="24.65" shape-rendering="crispEdges"/><rect fill="#1e1e1e" x="0" y="294.3" width="854" height="24.65" shape-rendering="crispEdges"/><rect fill="#1e1e1e" x="0" y="318.7" width="854" height="24.65" shape-rendering="crispEdges"/><rect fill="#1e1e1e" x="0" y="343.1" width="463.6" height="24.65" shape-rendering="crispEdges"/><rect fill="#1e1e1e" x="463.6" y="343.1" width="12.2" height="24.65" shape-rendering="crispEdges"/><rect fill="#1e1e1e" x="475.8" y="343.1" width="12.2" height="24.65" shape-rendering="crispEdges"/><rect fill="#1e1e1e" x="488" y="343.1" width="12.2" height="24.65" shape-rendering="crispEdges"/><rect fill="#1e1e1e" x="500.2" y="343.1" width="353.8" height="24.65" shape-rendering="crispEdges"/>
    <g class="spieldocs-matrix">
    <text class="spieldocs-r2" x="854" y="20" textLength="12.2" clip-path="url(#spieldocs-line-0)">
</text><text class="spieldocs-r2" x="854" y="44.4" textLength="12.2" clip-path="url(#spieldocs-line-1)">
</text><text class="spieldocs-r2" x="854" y="68.8" textLength="12.2" clip-path="url(#spieldocs-line-2)">
</text><text class="spieldocs-r2" x="854" y="93.2" textLength="12.2" clip-path="url(#spieldocs-line-3)">
</text><text class="spieldocs-r1" x="170.8" y="117.6" textLength="512.4" clip-path="url(#spieldocs-line-4)">spaces_before_bang=3&#160;|&#160;spaces_after_bang=2</text><text class="spieldocs-r2" x="854" y="117.6" textLength="12.2" clip-path="url(#spieldocs-line-4)">
</text><text class="spieldocs-r1" x="366" y="142" textLength="122" clip-path="url(#spieldocs-line-5)">╭────────╮</text><text class="spieldocs-r2" x="854" y="142" textLength="12.2" clip-path="url(#spieldocs-line-5)">
</text><text class="spieldocs-r1" x="366" y="166.4" textLength="12.2" clip-path="url(#spieldocs-line-6)">│</text><text class="spieldocs-r1" x="390.4" y="166.4" textLength="73.2" clip-path="url(#spieldocs-line-6)">&#160;&#160;&#160;!&#160;&#160;</text><text class="spieldocs-r1" x="475.8" y="166.4" textLength="12.2" clip-path="url(#spieldocs-line-6)">│</text><text class="spieldocs-r2" x="854" y="166.4" textLength="12.2" clip-path="url(#spieldocs-line-6)">
</text><text class="spieldocs-r1" x="366" y="190.8" textLength="122" clip-path="url(#spieldocs-line-7)">╰────────╯</text><text class="spieldocs-r2" x="854" y="190.8" textLength="12.2" clip-path="url(#spieldocs-line-7)">
</text><text class="spieldocs-r2" x="854" y="215.2" textLength="12.2" clip-path="url(#spieldocs-line-8)">
</text><text class="spieldocs-r2" x="854" y="239.6" textLength="12.2" clip-path="url(#spieldocs-line-9)">
</text><text class="spieldocs-r2" x="854" y="264" textLength="12.2" clip-path="url(#spieldocs-line-10)">
</text><text class="spieldocs-r2" x="854" y="288.4" textLength="12.2" clip-path="url(#spieldocs-line-11)">
</text><text class="spieldocs-r2" x="854" y="312.8" textLength="12.2" clip-path="url(#spieldocs-line-12)">
</text><text class="spieldocs-r3" x="0" y="337.2" textLength="854" clip-path="url(#spieldocs-line-13)">──────────────────────────────────────────────────────────────────────</text><text class="spieldocs-r2" x="854" y="337.2" textLength="12.2" clip-path="url(#spieldocs-line-13)">
</text><text class="spieldocs-r3" x="0" y="361.6" textLength="463.6" clip-path="url(#spieldocs-line-14)">Trigger&#160;Examples&#160;|&#160;Animating&#160;Content&#160;&#160;</text><text class="spieldocs-r3" x="500.2" y="361.6" textLength="353.8" clip-path="url(#spieldocs-line-14)">2022-12-17&#160;03:31&#160;PM&#160;&#160;&#160;[1&#160;/&#160;1]</text>
    </g>
    </g>
</svg>
